<svg width="1440" height="1024" viewBox="0 0 1440 1024" fill="none" xmlns="http://www.w3.org/2000/svg">
<g clip-path="url(#clip0_118_787)">
<rect width="1440" height="1024" fill="#3568A0"/>
<path fill-rule="evenodd" clip-rule="evenodd" d="M101.799 -260.69C91.866 -243.835 50.0211 -146.999 23.5731 -79.6464C-65.3373 146.788 -127.405 383.453 -169.893 658.074C-183.54 746.283 -204 925.334 -204 956.58V978.67L-123.572 1007.7C282.979 1154.44 660.147 1230.77 1122.87 1259.94L1171.36 1263L1204.14 1182.19C1370.4 772.416 1458.78 418.704 1481.15 73.5126L1485 14.0646L1443.36 -1.66829C1067.63 -143.639 579.319 -245.721 173.36 -267.166C111.976 -270.409 107.28 -269.983 101.799 -260.69ZM284.802 -238.374C404.026 -229.834 524.995 -213.978 656.715 -189.618C767.987 -169.044 911.989 -137.675 900.724 -136.466C898.342 -136.21 839.926 -146.236 770.911 -158.741C531.864 -202.072 378.837 -221.161 227.503 -226.53L136.939 -229.742L121.119 -197.748C78.6759 -111.906 22.038 41.8368 -43.9521 250.299C-59.0273 297.928 -72.1102 333.431 -73.0245 329.199C-75.7732 316.469 -15.2353 108.437 18.7983 13.6599C47.7747 -67.0385 91.4539 -175.75 114.425 -224.373L123.506 -243.584H167.761C192.104 -243.584 244.769 -241.238 284.802 -238.374ZM363.226 -143.095C614.171 -120.738 867.119 -71.4649 1113.88 3.12689C1193.59 27.2206 1342.63 78.4923 1351.41 84.8295C1357.86 89.5017 1357.43 104.051 1347.56 214.93C1325.66 460.739 1252.3 745.663 1135.95 1036.73C1112.95 1094.28 1094.13 1142.13 1094.13 1143.06C1094.13 1150.42 898.681 1136.13 762.501 1118.82C593.384 1097.32 389.939 1054.8 220.996 1005.65C128.795 978.834 -67.6119 911.999 -75.6321 904.719C-79.9611 900.789 -69.576 782.329 -56.7076 688.813C-16.2625 394.969 62.5283 112.853 168.354 -117.086L186.765 -157.092L232.668 -153.864C257.908 -152.092 316.662 -147.245 363.226 -143.095ZM923.278 -132.906C921.404 -131.205 916.533 -131.02 912.464 -132.501C907.96 -134.135 909.297 -135.349 915.873 -135.595C921.821 -135.816 925.151 -134.607 923.278 -132.906ZM224.913 -41.1568C114.374 182.47 28.6979 521.012 12.2173 799.296L8.85915 855.983L109.848 892.362C382.156 990.448 636.177 1043.71 921.985 1062.64C1050.08 1071.13 1030.82 1080.96 1070.28 986.913C1160.17 772.667 1221.37 561.832 1249.02 371.183C1259.22 300.864 1268.95 199.576 1269.04 162.93L1269.09 136.547L1219.96 117.878C933.883 9.17724 609.576 -59.0619 313.993 -72.761L242.178 -76.0859L224.913 -41.1568ZM502.091 7.61982C702.855 31.7904 914.365 80.8437 1099.87 146.265L1170.52 171.179L1166.37 231.477C1152.74 429.755 1097.57 652.003 1002.63 891.173C986.97 930.621 972.578 964.489 970.648 966.441C967.273 969.848 805.882 961.026 801.157 957.174C799.888 956.139 814.398 927.035 833.408 892.495C873.836 819.02 922.408 707.66 949.799 625.64C976.614 545.341 1012.39 371.183 1002.06 371.183C1000.48 371.183 819.608 473.772 600.117 599.159C380.626 724.546 200.045 827.135 198.826 827.135C197.601 827.135 172.158 818.641 142.278 808.262L87.949 789.383L91.533 745.504C93.5084 721.37 96.5618 697.009 98.3284 691.374C100.434 684.632 238.216 603.206 501.437 453.152C721.385 327.765 899.64 223.685 897.552 221.866C890.226 215.473 752.066 177.301 699.046 167.024C584.686 144.856 515.439 138.837 370.297 138.453C256.785 138.15 230.619 136.782 230.608 131.147C230.596 127.33 243.634 94.1431 259.578 57.4006L288.561 -9.40413L351.881 -6.12533C386.705 -4.31689 454.303 1.86662 502.091 7.61982ZM449.297 26.2063C453.18 27.6305 459.53 27.6305 463.407 26.2063C467.29 24.7872 464.113 23.6242 456.352 23.6242C448.592 23.6242 445.42 24.7872 449.297 26.2063ZM490.216 31.109C497.977 32.523 548.773 41.6779 603.097 51.4527C765.132 80.608 970.591 132.315 1104.64 177.68L1134.91 187.921L1131.12 247.533C1123 375.563 1099.92 508.343 1060.27 655.323C1048.13 700.298 1039.02 737.84 1040.02 738.747C1041.02 739.654 1052.44 706.313 1065.4 664.652C1107.4 529.639 1139.13 365.983 1148.29 237.077L1152.18 182.378L1130.21 173.884C1078.75 153.991 870.41 93.8102 794.723 76.9758C705.469 57.1291 571.107 35.2843 512.792 31.1397C492.615 29.7053 482.456 29.6899 490.216 31.109ZM1328.51 753.107C1285.06 912.49 1216.82 1102.77 1165.42 1207.89L1150.83 1237.71L1106.96 1234.88C1082.83 1233.34 1038.96 1230.76 1009.47 1229.15C842.856 1220.06 589.93 1180.76 402.734 1134.88C344.335 1120.57 362.588 1122.3 455.607 1139.9C700.558 1186.24 892.038 1210.81 1040.99 1215.01L1143.06 1217.9L1172.85 1152.12C1209.41 1071.41 1266.72 913.607 1314.69 761.555C1334.52 698.721 1351.59 649.631 1352.64 652.475C1353.68 655.318 1342.83 700.601 1328.51 753.107ZM1032.49 753.276C1032.76 759.244 1034.1 760.459 1035.9 756.376C1037.53 752.677 1037.33 748.255 1035.45 746.555C1033.58 744.854 1032.25 747.876 1032.49 753.276Z" fill="white" fill-opacity="0.05"/>
</g>
<defs>
<clipPath id="clip0_118_787">
<rect width="1440" height="1024" fill="white"/>
</clipPath>
</defs>
</svg>
